<svg width="56" height="57" viewBox="0 0 56 57" fill="none" xmlns="http://www.w3.org/2000/svg">
<g clip-path="url(#clip0_374_1743)">
<path d="M48.9998 16.675C49.6187 16.675 50.2122 16.9208 50.6497 17.3584C51.0873 17.796 51.3332 18.3895 51.3332 19.0083C51.3332 19.6271 51.0873 20.2206 50.6497 20.6582C50.2122 21.0958 49.6187 21.3416 48.9998 21.3416V44.675C49.6187 44.675 50.2122 44.9208 50.6497 45.3584C51.0873 45.796 51.3332 46.3895 51.3332 47.0083C51.3332 47.6271 51.0873 48.2206 50.6497 48.6582C50.2122 49.0958 49.6187 49.3416 48.9998 49.3416H6.99984C6.381 49.3416 5.78751 49.0958 5.34992 48.6582C4.91234 48.2206 4.6665 47.6271 4.6665 47.0083C4.6665 46.3895 4.91234 45.796 5.34992 45.3584C5.78751 44.9208 6.381 44.675 6.99984 44.675V21.3416C6.381 21.3416 5.78751 21.0958 5.34992 20.6582C4.91234 20.2206 4.6665 19.6271 4.6665 19.0083C4.6665 18.3895 4.91234 17.796 5.34992 17.3584C5.78751 16.9208 6.381 16.675 6.99984 16.675H48.9998ZM16.3332 26.0083C15.7143 26.0083 15.1208 26.2541 14.6833 26.6917C14.2457 27.1293 13.9998 27.7228 13.9998 28.3416V44.675H18.6665V28.3416C18.6665 27.7228 18.4207 27.1293 17.9831 26.6917C17.5455 26.2541 16.952 26.0083 16.3332 26.0083ZM27.9998 26.0083C27.381 26.0083 26.7875 26.2541 26.3499 26.6917C25.9123 27.1293 25.6665 27.7228 25.6665 28.3416V44.675H30.3332V28.3416C30.3332 27.7228 30.0873 27.1293 29.6497 26.6917C29.2122 26.2541 28.6187 26.0083 27.9998 26.0083ZM39.6665 26.0083C39.0477 26.0083 38.4542 26.2541 38.0166 26.6917C37.579 27.1293 37.3332 27.7228 37.3332 28.3416V44.675H41.9998V28.3416C41.9998 27.7228 41.754 27.1293 41.3164 26.6917C40.8788 26.2541 40.2853 26.0083 39.6665 26.0083ZM41.9998 9.67497C42.6187 9.67497 43.2122 9.92081 43.6497 10.3584C44.0873 10.796 44.3332 11.3895 44.3332 12.0083C44.3332 12.6271 44.0873 13.2206 43.6497 13.6582C43.2122 14.0958 42.6187 14.3416 41.9998 14.3416H13.9998C13.381 14.3416 12.7875 14.0958 12.3499 13.6582C11.9123 13.2206 11.6665 12.6271 11.6665 12.0083C11.6665 11.3895 11.9123 10.796 12.3499 10.3584C12.7875 9.92081 13.381 9.67497 13.9998 9.67497H41.9998Z" fill="#42AE68"/>
</g>
<defs>
<clipPath id="clip0_374_1743">
<rect width="56" height="56" fill="white" transform="translate(0 0.341644)"/>
</clipPath>
</defs>
</svg>
